<?xml version="1.0" encoding="UTF-8"?>
<svg id="Layer_1" xmlns="http://www.w3.org/2000/svg" version="1.1" xmlns:xlink="http://www.w3.org/1999/xlink" viewBox="0 0 307.2 307.2">
  <!-- Generator: Adobe Illustrator 29.3.1, SVG Export Plug-In . SVG Version: 2.1.0 Build 151)  -->
  <defs>
    <style>
      .st0 {
        fill: #fff;
        stroke: #fff;
        stroke-linecap: round;
        stroke-miterlimit: 10;
      }

      .st1 {
        fill: #1cdbdb;
        isolation: isolate;
      }
    </style>
  </defs>
  <ellipse class="st1" cx="148.9" cy="153.7" rx="20.1" ry="18.8"/>
  <path class="st0" d="M137.4,164c8.8-3.3,17.7-6.7,26.5-10,.4-.2.4-.7,0-.9l-26.3-11c-.1,0-.3,0-.5,0-.5.4.3,1.9,1.3,4.3,1.7,4,1.5,4.2,2.2,4.8.6.4,2,.6,4.9.9,1.6.2,2.2.2,3.8.4,1.2.2,2.2.4,2.8.5-2.6.7-4.8,1.1-6.3,1.3-3,.4-4.3.4-5.4,1.4-.5.4-.3.5-1.9,3.8-1.2,2.4-2,3.9-1.6,4.3.1,0,.3,0,.4,0Z"/>
</svg>